<svg width="30" height="30" viewBox="0 0 30 30" fill="none" xmlns="http://www.w3.org/2000/svg">
<path d="M6 6V24.1837C6 24.3623 6.07095 24.5336 6.19725 24.6599C6.32355 24.7862 6.49485 24.8571 6.67347 24.8571H24.8571" stroke="black" stroke-width="1.5" stroke-linecap="round" stroke-linejoin="round"/>
<path d="M11.2208 14.082H9.53715C9.07222 14.082 8.69531 14.4589 8.69531 14.9239V21.3218C8.69531 21.7868 9.07222 22.1637 9.53715 22.1637H11.2208C11.6858 22.1637 12.0627 21.7868 12.0627 21.3218V14.9239C12.0627 14.4589 11.6858 14.082 11.2208 14.082Z" stroke="black" stroke-width="1.5" stroke-linecap="round" stroke-linejoin="round"/>
<path d="M17.2834 12.0605H15.5997C15.1348 12.0605 14.7579 12.4374 14.7579 12.9024V21.3208C14.7579 21.7857 15.1348 22.1626 15.5997 22.1626H17.2834C17.7483 22.1626 18.1252 21.7857 18.1252 21.3208V12.9024C18.1252 12.4374 17.7483 12.0605 17.2834 12.0605Z" stroke="black" stroke-width="1.5" stroke-linecap="round" stroke-linejoin="round"/>
<path d="M23.3282 9.36719H21.6446C21.1796 9.36719 20.8027 9.74409 20.8027 10.209V21.3213C20.8027 21.7862 21.1796 22.1631 21.6446 22.1631H23.3282C23.7932 22.1631 24.1701 21.7862 24.1701 21.3213V10.209C24.1701 9.74409 23.7932 9.36719 23.3282 9.36719Z" stroke="black" stroke-width="1.5" stroke-linecap="round" stroke-linejoin="round"/>
</svg>
