<svg width="24" height="24" viewBox="0 0 24 24" fill="none" xmlns="http://www.w3.org/2000/svg">
<path d="M17.3652 5.53845H6.59869C6.07314 5.53995 5.56955 5.74938 5.19793 6.121C4.82632 6.49262 4.61688 6.99621 4.61539 7.52175V14.3216C4.61688 14.8472 4.82632 15.3508 5.19793 15.7224C5.56955 16.094 6.07314 16.3035 6.59869 16.305H8.01533V19.1382L11.3345 16.3708C11.3855 16.3283 11.4498 16.3049 11.5162 16.305H17.3652C17.8907 16.3035 18.3943 16.094 18.7659 15.7224C19.1376 15.3508 19.347 14.8472 19.3485 14.3216V7.52175C19.347 6.99621 19.1376 6.49262 18.7659 6.121C18.3943 5.74938 17.8907 5.53995 17.3652 5.53845Z" stroke="#9C9C9C" stroke-width="1.5" stroke-linejoin="round"/>
<path d="M8.58284 12.0545C9.20875 12.0545 9.71616 11.5471 9.71616 10.9212C9.71616 10.2952 9.20875 9.78784 8.58284 9.78784C7.95693 9.78784 7.44952 10.2952 7.44952 10.9212C7.44952 11.5471 7.95693 12.0545 8.58284 12.0545Z" fill="#9C9C9C"/>
<path d="M11.9831 12.0545C12.609 12.0545 13.1164 11.5471 13.1164 10.9212C13.1164 10.2952 12.609 9.78784 11.9831 9.78784C11.3572 9.78784 10.8498 10.2952 10.8498 10.9212C10.8498 11.5471 11.3572 12.0545 11.9831 12.0545Z" fill="#9C9C9C"/>
<path d="M15.3816 12.0545C16.0075 12.0545 16.5149 11.5471 16.5149 10.9212C16.5149 10.2953 16.0075 9.78787 15.3816 9.78787C14.7557 9.78787 14.2483 10.2953 14.2483 10.9212C14.2483 11.5471 14.7557 12.0545 15.3816 12.0545Z" fill="#9C9C9C"/>
</svg>
