<svg width="30" height="30" viewBox="0 0 30 30" fill="none" xmlns="http://www.w3.org/2000/svg">
<path d="M21.429 9.53906H7.26689C6.09367 9.53906 5.14258 10.4902 5.14258 11.6634V20.1606C5.14258 21.3339 6.09367 22.285 7.26689 22.285H21.429C22.6022 22.285 23.5533 21.3339 23.5533 20.1606V11.6634C23.5533 10.4902 22.6022 9.53906 21.429 9.53906Z" stroke="black" stroke-width="1.5" stroke-linejoin="round"/>
<path d="M21.2237 9.53981V8.21212C21.2235 7.88648 21.1516 7.56488 21.0129 7.27026C20.8742 6.97564 20.6721 6.71527 20.4212 6.50772C20.1703 6.30017 19.8767 6.15055 19.5613 6.06955C19.2459 5.98855 18.9165 5.97816 18.5966 6.03912L6.94117 8.02845C6.43501 8.12491 5.97839 8.39498 5.65005 8.79207C5.3217 9.18917 5.14223 9.6884 5.14258 10.2037V12.3722" stroke="black" stroke-width="1.5" stroke-linejoin="round"/>
<path d="M19.3049 17.3285C19.0248 17.3285 18.751 17.2455 18.5181 17.0898C18.2852 16.9342 18.1037 16.713 17.9965 16.4543C17.8893 16.1955 17.8612 15.9107 17.9159 15.636C17.9705 15.3613 18.1054 15.109 18.3035 14.9109C18.5015 14.7128 18.7539 14.578 19.0286 14.5233C19.3033 14.4687 19.5881 14.4967 19.8468 14.6039C20.1056 14.7111 20.3268 14.8926 20.4824 15.1255C20.638 15.3584 20.7211 15.6322 20.7211 15.9123C20.7211 16.2879 20.5719 16.6481 20.3063 16.9137C20.0407 17.1793 19.6805 17.3285 19.3049 17.3285Z" fill="black"/>
</svg>
