<svg width="30" height="25" viewBox="0 0 30 25" fill="none" xmlns="http://www.w3.org/2000/svg">
<path d="M18.9615 6.8457H20.7885C21.273 6.8457 21.7377 7.03818 22.0803 7.3808C22.4229 7.72341 22.6154 8.1881 22.6154 8.67263V18.1726C22.6154 18.6572 22.4229 19.1218 22.0803 19.4645C21.7377 19.8071 21.273 19.9995 20.7885 19.9995H9.82692C9.34239 19.9995 8.87771 19.8071 8.53509 19.4645C8.19248 19.1218 8 18.6572 8 18.1726V8.67263C8 8.1881 8.19248 7.72341 8.53509 7.3808C8.87771 7.03818 9.34239 6.8457 9.82692 6.8457H11.6538" stroke="black" stroke-width="1.60123" stroke-linecap="round" stroke-linejoin="round"/>
<path d="M11.6542 11.2305L15.308 14.8843L18.9619 11.2305" stroke="black" stroke-width="1.60123" stroke-linecap="round" stroke-linejoin="round"/>
<path d="M15.3083 1V14.1538" stroke="black" stroke-width="1.60123" stroke-linecap="round" stroke-linejoin="round"/>
</svg>
