<svg width="30" height="30" viewBox="0 0 30 30" fill="none" xmlns="http://www.w3.org/2000/svg">
<path d="M24.3072 14.5621C23.4975 10.8354 22.2966 8.45818 20.3718 7.87888C19.999 7.76816 19.6124 7.71293 19.2241 7.7149C18.0408 7.7149 17.107 8.43174 14.9996 8.43174C12.8921 8.43174 11.9566 7.7149 10.775 7.7149C10.3705 7.71277 9.96766 7.76796 9.57808 7.87888C7.65063 8.45818 6.45984 10.8376 5.6409 14.5621C4.80479 18.3663 4.95617 21.3721 6.59054 21.9491C7.73468 22.3523 8.75781 21.5186 9.72681 20.2914C10.827 18.8936 12.1819 18.4635 14.9996 18.4635C17.8172 18.4635 19.1194 18.8936 20.2213 20.2914C21.1894 21.5195 22.2504 22.3429 23.3641 21.9563C25.1693 21.3286 25.1437 18.4111 24.3072 14.5621Z" stroke="black" stroke-width="1.5" stroke-miterlimit="10"/>
<path d="M16.5832 14.3448C17.0693 14.3448 17.4633 13.9437 17.4633 13.4488C17.4633 12.9539 17.0693 12.5527 16.5832 12.5527C16.0972 12.5527 15.7031 12.9539 15.7031 13.4488C15.7031 13.9437 16.0972 14.3448 16.5832 14.3448Z" fill="black"/>
<path d="M18.5207 16.3175C18.3466 16.3175 18.1763 16.2649 18.0315 16.1663C17.8868 16.0678 17.774 15.9277 17.7074 15.7638C17.6409 15.6 17.6236 15.4197 17.6577 15.2458C17.6918 15.0719 17.7759 14.9123 17.8992 14.787C18.0225 14.6618 18.1795 14.5767 18.3504 14.5423C18.5213 14.508 18.6983 14.5261 18.8591 14.5942C19.0198 14.6624 19.1571 14.7776 19.2536 14.9253C19.35 15.0729 19.4013 15.2464 19.4008 15.4237C19.4003 15.6609 19.3073 15.8883 19.1423 16.0558C18.9773 16.2234 18.7538 16.3175 18.5207 16.3175Z" fill="black"/>
<path d="M18.5207 12.3741C19.0068 12.3741 19.4008 11.973 19.4008 11.4781C19.4008 10.9832 19.0068 10.582 18.5207 10.582C18.0347 10.582 17.6406 10.9832 17.6406 11.4781C17.6406 11.973 18.0347 12.3741 18.5207 12.3741Z" fill="black"/>
<path d="M20.4563 14.3448C20.9424 14.3448 21.3364 13.9437 21.3364 13.4488C21.3364 12.9539 20.9424 12.5527 20.4563 12.5527C19.9702 12.5527 19.5762 12.9539 19.5762 13.4488C19.5762 13.9437 19.9702 14.3448 20.4563 14.3448Z" fill="black"/>
<path d="M10.7754 11.2988V15.5999" stroke="black" stroke-width="1.5" stroke-linecap="round" stroke-linejoin="round"/>
<path d="M12.8866 13.4492H8.66211" stroke="black" stroke-width="1.5" stroke-linecap="round" stroke-linejoin="round"/>
</svg>
