<svg width="30" height="30" viewBox="0 0 30 30" fill="none" xmlns="http://www.w3.org/2000/svg">
<path d="M15.2019 17.4996C16.4838 17.4996 17.523 16.4604 17.523 15.1785C17.523 13.8966 16.4838 12.8574 15.2019 12.8574C13.92 12.8574 12.8809 13.8966 12.8809 15.1785C12.8809 16.4604 13.92 17.4996 15.2019 17.4996Z" fill="black"/>
<path d="M22.9383 17.4996C24.2202 17.4996 25.2593 16.4604 25.2593 15.1785C25.2593 13.8966 24.2202 12.8574 22.9383 12.8574C21.6564 12.8574 20.6172 13.8966 20.6172 15.1785C20.6172 16.4604 21.6564 17.4996 22.9383 17.4996Z" fill="black"/>
<path d="M7.46366 17.4996C8.74555 17.4996 9.78474 16.4604 9.78474 15.1785C9.78474 13.8966 8.74555 12.8574 7.46366 12.8574C6.18176 12.8574 5.14258 13.8966 5.14258 15.1785C5.14258 16.4604 6.18176 17.4996 7.46366 17.4996Z" fill="black"/>
</svg>
