<svg width="24" height="24" viewBox="0 0 24 24" fill="none" xmlns="http://www.w3.org/2000/svg">
<path d="M12.1635 13.9994C13.189 13.9994 14.0204 13.168 14.0204 12.1425C14.0204 11.117 13.189 10.2856 12.1635 10.2856C11.138 10.2856 10.3066 11.117 10.3066 12.1425C10.3066 13.168 11.138 13.9994 12.1635 13.9994Z" fill="#9C9C9C"/>
<path d="M18.351 13.9994C19.3765 13.9994 20.2079 13.168 20.2079 12.1425C20.2079 11.117 19.3765 10.2856 18.351 10.2856C17.3255 10.2856 16.4941 11.117 16.4941 12.1425C16.4941 13.168 17.3255 13.9994 18.351 13.9994Z" fill="#9C9C9C"/>
<path d="M5.9721 13.9994C6.99761 13.9994 7.82896 13.168 7.82896 12.1425C7.82896 11.117 6.99761 10.2856 5.9721 10.2856C4.94658 10.2856 4.11523 11.117 4.11523 12.1425C4.11523 13.168 4.94658 13.9994 5.9721 13.9994Z" fill="#9C9C9C"/>
</svg>
