<svg width="24" height="24" viewBox="0 0 24 24" fill="none" xmlns="http://www.w3.org/2000/svg">
<path d="M6.84976 14.2983C6.84976 10.8163 11.4924 8.12057 10.4441 4.11441C12.9152 4.11441 17.6327 7.70872 17.6327 14.2983C17.6327 15.7282 17.0647 17.0995 16.0536 18.1106C15.0425 19.1217 13.6711 19.6897 12.2412 19.6897C10.8113 19.6897 9.43998 19.1217 8.42888 18.1106C7.41779 17.0995 6.84976 15.7282 6.84976 14.2983Z" stroke="#3179CC" stroke-width="1.5" stroke-linecap="round" stroke-linejoin="round"/>
<path d="M14.6383 16.0953C14.6383 18.256 13.4402 19.0906 12.2421 19.0906C11.044 19.0906 9.84586 18.256 9.84586 16.0953C9.84586 13.9346 11.3435 12.8754 11.044 11.3029C12.6165 11.3029 14.6383 13.9346 14.6383 16.0953Z" stroke="#3179CC" stroke-width="1.38462" stroke-linecap="round" stroke-linejoin="round"/>
</svg>
