<svg width="24" height="24" viewBox="0 0 24 24" fill="none" xmlns="http://www.w3.org/2000/svg">
<path d="M6.84973 14.2983C6.84973 10.8163 11.4924 8.12057 10.444 4.11441C12.9151 4.11441 17.6327 7.70872 17.6327 14.2983C17.6327 15.7282 17.0646 17.0995 16.0535 18.1106C15.0424 19.1217 13.6711 19.6897 12.2412 19.6897C10.8113 19.6897 9.43995 19.1217 8.42885 18.1106C7.41776 17.0995 6.84973 15.7282 6.84973 14.2983Z" stroke="#9C9C9C" stroke-width="1.5" stroke-linecap="round" stroke-linejoin="round"/>
<path d="M14.6382 16.0953C14.6382 18.256 13.4401 19.0906 12.242 19.0906C11.0439 19.0906 9.84583 18.256 9.84583 16.0953C9.84583 13.9346 11.3435 12.8754 11.0439 11.3029C12.6164 11.3029 14.6382 13.9346 14.6382 16.0953Z" stroke="#9C9C9C" stroke-width="1.38462" stroke-linecap="round" stroke-linejoin="round"/>
</svg>
