<svg width="24" height="24" viewBox="0 0 24 24" fill="none" xmlns="http://www.w3.org/2000/svg">
<path d="M8.30469 6.4615V5.99993C8.30575 5.63301 8.45198 5.28143 8.71143 5.02198C8.97088 4.76253 9.32247 4.6163 9.68938 4.61523H16.1513C16.5182 4.6163 16.8698 4.76253 17.1293 5.02198C17.3887 5.28143 17.5349 5.63301 17.536 5.99993V16.6159L15.2282 14.7697" stroke="#9C9C9C" stroke-width="1.5" stroke-linejoin="round"/>
<path d="M13.846 6.92337H7.84563C7.47872 6.92444 7.12713 7.07067 6.86768 7.33012C6.60823 7.58957 6.462 7.94115 6.46094 8.30807V18.4625L10.8458 14.77L15.2307 18.4625V8.30807C15.2296 7.94115 15.0834 7.58957 14.8239 7.33012C14.5645 7.07067 14.2129 6.92444 13.846 6.92337Z" stroke="#9C9C9C" stroke-width="1.5" stroke-linejoin="round"/>
</svg>
