<svg width="20" height="20" viewBox="0 0 20 20" fill="none" xmlns="http://www.w3.org/2000/svg">
<path d="M8.51966 3.99976C7.49481 3.99976 6.49296 4.30366 5.64083 4.87304C4.78869 5.44242 4.12453 6.2517 3.73233 7.19855C3.34014 8.14539 3.23752 9.18727 3.43746 10.1924C3.6374 11.1976 4.13091 12.1209 4.8556 12.8456C5.58028 13.5703 6.50359 14.0638 7.50875 14.2637C8.51392 14.4637 9.5558 14.3611 10.5026 13.9689C11.4495 13.5767 12.2588 12.9125 12.8281 12.0604C13.3975 11.2082 13.7014 10.2064 13.7014 9.18153C13.7013 7.80726 13.1554 6.48931 12.1836 5.51756C11.2119 4.54581 9.89393 3.99984 8.51966 3.99976Z" stroke="#A8A8A8" stroke-width="1.5" stroke-miterlimit="10"/>
<path d="M12.3887 13.0476L16.0076 16.6665" stroke="#A8A8A8" stroke-width="1.5" stroke-miterlimit="10" stroke-linecap="round"/>
</svg>
