<svg width="30" height="30" viewBox="0 0 30 30" fill="none" xmlns="http://www.w3.org/2000/svg">
<path d="M14.7678 12.9598C14.2306 12.9083 13.6901 13.0191 13.2203 13.2769C12.7506 13.5347 12.3745 13.9269 12.1436 14.3998C11.9127 14.8727 11.8383 15.4032 11.9306 15.9187C12.0228 16.4342 12.2772 16.9095 12.659 17.2794C13.0407 17.6494 13.5311 17.8959 14.063 17.9853C14.5949 18.0747 15.1423 18.0026 15.6303 17.7789C16.1183 17.5551 16.523 17.1907 16.789 16.7354C17.055 16.2801 17.1693 15.7563 17.1162 15.2357C17.0558 14.652 16.7889 14.1066 16.3609 13.6918C15.9329 13.277 15.3701 13.0184 14.7678 12.9598ZM21.0725 15.4851C21.0709 15.7609 21.0499 16.0363 21.0099 16.3094L22.8596 17.7154C22.9402 17.7801 22.9944 17.8703 23.0128 17.9702C23.0311 18.07 23.0124 18.1729 22.9599 18.2605L21.21 21.1946C21.1569 21.2815 21.0738 21.3473 20.9754 21.3806C20.8771 21.4139 20.7698 21.4125 20.6724 21.3766L18.8354 20.6597C18.7341 20.6207 18.6244 20.6065 18.5161 20.6186C18.4077 20.6308 18.3042 20.6687 18.2148 20.7291C17.9344 20.9162 17.6398 21.0824 17.3335 21.2263C17.2372 21.2717 17.1539 21.3393 17.091 21.4233C17.028 21.5072 16.9874 21.6049 16.9726 21.7077L16.6973 23.6065C16.6792 23.7068 16.6258 23.7979 16.5461 23.8642C16.4664 23.9305 16.3654 23.968 16.2603 23.9701H12.7606C12.6574 23.9684 12.5578 23.9326 12.4783 23.8687C12.3988 23.8047 12.3441 23.7165 12.3233 23.6184L12.0483 21.7224C12.0329 21.6185 11.9912 21.5199 11.927 21.4353C11.8627 21.3508 11.7779 21.283 11.6801 21.2378C11.3742 21.0947 11.0806 20.9281 10.8021 20.7394C10.713 20.6793 10.6098 20.6417 10.5019 20.6298C10.394 20.618 10.2847 20.6324 10.1839 20.6716L8.34735 21.3881C8.25002 21.424 8.14274 21.4255 8.0444 21.3923C7.94605 21.3591 7.86296 21.2933 7.80976 21.2065L6.05991 18.2724C6.0073 18.1848 5.9885 18.0819 6.00685 17.982C6.02521 17.8822 6.07953 17.7919 6.16014 17.7272L7.72343 16.5378C7.80908 16.4719 7.87639 16.3863 7.91925 16.2888C7.96212 16.1913 7.97919 16.085 7.96891 15.9795C7.95418 15.8141 7.94518 15.6492 7.94518 15.4839C7.94518 15.3185 7.95377 15.156 7.96891 14.9942C7.97807 14.8893 7.96016 14.7839 7.91681 14.6874C7.87346 14.5909 7.80602 14.5064 7.72057 14.4415L6.1581 13.252C6.07879 13.187 6.02562 13.097 6.00789 12.9979C5.99016 12.8987 6.00901 12.7966 6.06113 12.7096L7.81098 9.77549C7.86412 9.68865 7.94719 9.62278 8.04554 9.58948C8.14389 9.55619 8.25121 9.55761 8.34858 9.59349L10.1856 10.3104C10.2869 10.3494 10.3966 10.3636 10.5049 10.3515C10.6132 10.3394 10.7168 10.3014 10.8062 10.241C11.0866 10.0539 11.3812 9.88766 11.6875 9.74377C11.7838 9.69841 11.8671 9.63077 11.93 9.54682C11.993 9.46287 12.0336 9.36519 12.0483 9.26242L12.3237 7.36359C12.3418 7.26331 12.3952 7.17222 12.4749 7.10591C12.5546 7.03959 12.6556 7.00216 12.7606 7H16.2603C16.3636 7.00173 16.4632 7.03751 16.5427 7.10144C16.6222 7.16537 16.6769 7.25363 16.6977 7.35169L16.9726 9.24775C16.9881 9.35166 17.0298 9.45026 17.094 9.53479C17.1582 9.61932 17.243 9.68715 17.3409 9.73227C17.6468 9.87539 17.9404 10.0421 18.2189 10.2307C18.308 10.2908 18.4112 10.3285 18.5191 10.3403C18.627 10.3521 18.7363 10.3378 18.837 10.2985L20.6736 9.58199C20.771 9.54608 20.8782 9.5446 20.9766 9.57782C21.0749 9.61104 21.158 9.67682 21.2112 9.76359L22.9611 12.6977C23.0137 12.7853 23.0325 12.8882 23.0141 12.9881C22.9958 13.0879 22.9415 13.1782 22.8608 13.2429L21.2976 14.4324C21.2115 14.498 21.1438 14.5835 21.1006 14.681C21.0574 14.7785 21.04 14.8849 21.05 14.9906C21.0635 15.1548 21.0725 15.3197 21.0725 15.4851Z" stroke="black" stroke-width="1.5" stroke-linecap="round" stroke-linejoin="round"/>
</svg>
