<svg width="24" height="24" viewBox="0 0 24 24" fill="none" xmlns="http://www.w3.org/2000/svg">
<path d="M14.4245 9.61465H15.7619C16.1166 9.61465 16.4568 9.75556 16.7076 10.0064C16.9584 10.2572 17.0993 10.5973 17.0993 10.952V17.3715C17.0993 17.7262 16.9584 18.0664 16.7076 18.3172C16.4568 18.568 16.1166 18.7089 15.7619 18.7089H7.73762C7.38293 18.7089 7.04276 18.568 6.79195 18.3172C6.54114 18.0664 6.40024 17.7262 6.40024 17.3715V10.952C6.40024 10.5973 6.54114 10.2572 6.79195 10.0064C7.04276 9.75556 7.38293 9.61465 7.73762 9.61465H9.07501" stroke="#9C9C9C" stroke-width="1.5" stroke-linecap="round" stroke-linejoin="round"/>
<path d="M14.4235 7.47494L11.7487 4.80017L9.07391 7.47494" stroke="#9C9C9C" stroke-width="1.5" stroke-linecap="round" stroke-linejoin="round"/>
<path d="M11.7518 13.9278V4.80017" stroke="#9C9C9C" stroke-width="1.5" stroke-linecap="round" stroke-linejoin="round"/>
</svg>
