<svg width="30" height="30" viewBox="0 0 30 30" fill="none" xmlns="http://www.w3.org/2000/svg">
<path d="M20.7124 16.2035C20.062 16.2035 19.4262 16.3964 18.8854 16.7577C18.3447 17.119 17.9232 17.6326 17.6743 18.2335C17.4254 18.8344 17.3603 19.4956 17.4871 20.1335C17.614 20.7714 17.9272 21.3573 18.3871 21.8172C18.847 22.2771 19.433 22.5903 20.0709 22.7172C20.7088 22.8441 21.37 22.779 21.9709 22.5301C22.5717 22.2812 23.0853 21.8597 23.4467 21.3189C23.808 20.7781 24.0009 20.1423 24.0009 19.492C23.9981 18.6206 23.6508 17.7858 23.0347 17.1697C22.4186 16.5536 21.5837 16.2062 20.7124 16.2035Z" stroke="black" stroke-width="1.5" stroke-miterlimit="10"/>
<path d="M9.28846 16.2035C8.63807 16.2035 8.00228 16.3964 7.46149 16.7577C6.92071 17.119 6.49922 17.6326 6.25032 18.2335C6.00142 18.8344 5.9363 19.4956 6.06319 20.1335C6.19007 20.7714 6.50327 21.3573 6.96317 21.8172C7.42307 22.2771 8.00902 22.5903 8.64692 22.7172C9.28482 22.8441 9.94601 22.779 10.5469 22.5301C11.1478 22.2812 11.6614 21.8597 12.0227 21.3189C12.3841 20.7781 12.5769 20.1423 12.5769 19.492C12.5742 18.6206 12.2268 17.7858 11.6107 17.1697C10.9946 16.5536 10.1598 16.2062 9.28846 16.2035Z" stroke="black" stroke-width="1.5" stroke-miterlimit="10"/>
<path d="M14.9997 19.3191V15.5979L12.2305 13.7806L15.692 9.9729L17.4228 13.0883H19.8459" stroke="black" stroke-width="1.5" stroke-linecap="round" stroke-linejoin="round"/>
<path d="M17.769 9.6267C17.9513 9.62733 18.132 9.5918 18.3006 9.52217C18.4691 9.45254 18.6222 9.35019 18.751 9.22103C18.8797 9.09187 18.9816 8.93847 19.0507 8.7697C19.1198 8.60092 19.1548 8.42012 19.1536 8.23775C19.1556 8.0563 19.1214 7.87626 19.053 7.70816C18.9847 7.54007 18.8835 7.3873 18.7553 7.25878C18.6272 7.13026 18.4748 7.02857 18.3069 6.95967C18.139 6.89076 17.9591 6.85602 17.7776 6.85747C17.5958 6.8569 17.4156 6.89215 17.2474 6.96121C17.0792 7.03027 16.9263 7.13178 16.7973 7.25995C16.5368 7.5188 16.3898 7.87053 16.3887 8.23775C16.3875 8.60498 16.5323 8.95761 16.7912 9.21809C17.05 9.47857 17.4017 9.62555 17.769 9.6267Z" fill="black"/>
</svg>
